<svg version="1.1" id="Layer_1" xmlns="http://www.w3.org/2000/svg" xmlns:xlink="http://www.w3.org/1999/xlink" x="0px" y="0px" viewBox="-279.5 -15.5 748.9 141.3" style="enable-background:new -279.5 -15.5 748.9 141.3;" xml:space="preserve">
 <style type="text/css">
  .st0{fill:#FF4438;}
 </style>
 <g>
  <path class="st0" d="M49.6,18.7c-13.2,0-23.2,5.8-29.3,17.3C15.8,24.4,6.9,18.7-6.2,18.7c-13.3,0-22.6,5.7-27.7,17.1V20.9h-24.8
		v74.4h25.6V56.8c0-12,6-19,16-19c9.6,0,14.4,5.9,14.4,18.1v39.4h25.6v-39c0-11.7,6-18.6,16-18.6c9.6,0,14.4,5.9,14.4,18.1v39.4
		h25.6v-44C78.8,30.3,68.3,18.7,49.6,18.7z">
  </path>
  <path class="st0" d="M-110.6,66.6c-1.2,3.6-1.8,5.5-2.2,8.2h-0.4c-0.6-3.1-1-5.1-2.4-8.3l-18-45.5h-28.3l35.6,74.2l-0.6,2.2
		c-3,6.2-9.7,9.4-18.7,9.4c-3,0-5.8-0.1-10.2-0.9v18.9c4.2,0.7,9.4,1,12.7,1c21.6,0,34-7.7,42.4-27.1l33.8-77.8h-26.5L-110.6,66.6z">
  </path>
  <path class="st0" d="M-224.5,54.9h36.7l-0.1,12.6c0,0-10.8,10.3-30.2,10.3c-21,0-32.9-14.1-32.9-36.4c0-22.5,12-36.6,32.6-36.6
		c12.3,0,21.4,7.3,27.5,18l20.2-11c-6.9-17.1-24.1-27.2-47.2-27.2c-38,0-61.5,23.4-61.5,57.4c0,37.2,31.1,57.7,60.8,57.7
		c27.2,0,45.1-12.6,52.7-23.2v-40h-58.5V54.9z">
  </path>
  <path class="st0" d="M148.5,18.7c-13.2,0-24.4,5.1-30.5,14.7V20.9H93.1v103.4h25.6V84.9c6.3,7.9,16.2,12.6,28.7,12.6
		c22.8,0,38.3-15.8,38.3-39.7C185.8,34.2,171,18.7,148.5,18.7z M138.8,80.4c-12.4,0-20.7-8.2-20.7-20.7v-3.1
		c0-13.2,8.2-20.8,20.8-20.8c12.9,0,20.4,8,20.4,22C159.3,71.8,151.5,80.4,138.8,80.4z">
  </path>
  <path class="st0" d="M351.8,49.5l-22-2.2c-6.9-0.7-9.6-2.5-9.6-6.1c0-4.3,4.6-6.2,14.5-6.2c13.5,0,22.9,3.3,30.5,10.1l12-12.2
		c-8.4-9.1-23.1-14.1-41.2-14.1c-25.1,0-39.2,8.8-39.2,23.9c0,13.1,8.7,20.7,26.9,22.9l19.9,1.9c8.5,0.9,10.8,2.5,10.8,6.7
		c0,4.6-4.6,6.8-15.1,6.8c-15.6,0-26.2-4.5-33.2-12.8l-13.8,11.6c9.3,11.6,25,17.7,45.8,17.7c26,0,39.4-9.5,39.4-25.3
		C377.6,59.2,370.2,51.6,351.8,49.5z">
  </path>
  <path class="st0" d="M443.7,49.5l-22-2.2c-6.9-0.7-9.6-2.5-9.6-6.1c0-4.3,4.6-6.2,14.5-6.2c13.5,0,22.9,3.3,30.5,10.1l12-12.2
		c-8.4-9.1-23.1-14.1-41.2-14.1c-25.2,0-39.2,8.8-39.2,23.9c0,13.1,8.7,20.7,26.9,22.9l19.9,1.9c8.5,0.9,10.8,2.5,10.8,6.7
		c0,4.6-4.6,6.8-15.1,6.8c-15.6,0-26.2-4.5-33.2-12.8l-13.8,11.6c9.3,11.6,25,17.7,45.8,17.7c26,0,39.4-9.5,39.4-25.3
		C469.5,59.2,462.1,51.6,443.7,49.5z">
  </path>
  <path class="st0" d="M283.4,73.6V50.5c0-21.6-13-31.8-41.5-31.8c-25.3,0-41.9,10.3-43.9,27.2h26.2c1-7.4,7.2-11.5,17.5-11.5
		c10.2,0,15.9,4,15.9,12.3V49l-27.8,2.5c-13.3,1.3-20.8,3.6-26,7.1c-5.2,3.7-8.1,9.4-8.1,16.2c0,14,11.8,22.6,30.7,22.6
		c15.9,0,27.5-5.5,32.5-14.9c0,4.5,0.4,9.1,1,12.6h25.3C284,90.1,283.4,83.1,283.4,73.6z M258.3,65.9c0,9.8-9,16.2-22.2,16.2
		c-8.8,0-14.2-3.3-14.2-8.8c0-5.8,4.3-8.8,15.7-10.1l20.7-2.1V65.9z">
  </path>
 </g>
</svg>